<svg width="200" height="126" viewBox="0 0 200 126" fill="none" xmlns="http://www.w3.org/2000/svg">
<g clip-path="url(#clip0)">
<path d="M171.698 101.768H21.6184C20.594 101.766 19.6118 101.359 18.8873 100.635C18.1629 99.9101 17.7554 98.9279 17.7543 97.9034V5.36158C17.7551 4.61103 18.0536 3.89145 18.5843 3.36072C19.115 2.82999 19.8346 2.53144 20.5852 2.53058H172.682C173.446 2.53145 174.178 2.83515 174.717 3.37505C175.257 3.91496 175.561 4.64699 175.562 5.41052V97.9034C175.561 98.9279 175.153 99.9101 174.429 100.635C173.704 101.359 172.722 101.766 171.698 101.768Z" fill="#F2F2F2"/>
<path d="M166.305 96.9555H26.435C24.3847 96.9555 22.7166 95.3935 22.7166 93.4735V12.8868C22.7166 11.4629 23.9527 10.3044 25.472 10.3044H167.222C168.767 10.3044 170.023 11.482 170.023 12.9294V93.4735C170.023 95.3935 168.355 96.9555 166.305 96.9555Z" fill="white"/>
<path d="M175.508 5.84314H17.7V3.87583C17.7015 2.84794 18.1106 1.8626 18.8377 1.136C19.5648 0.409391 20.5503 0.000848593 21.5782 0H171.63C172.658 0.000843644 173.643 0.409382 174.37 1.13599C175.097 1.8626 175.507 2.84794 175.508 3.87583V5.84314Z" fill="#2B99D8"/>
<path d="M24.7481 3.93054C25.3021 3.93054 25.7512 3.48142 25.7512 2.9274C25.7512 2.37338 25.3021 1.92426 24.7481 1.92426C24.1941 1.92426 23.7449 2.37338 23.7449 2.9274C23.7449 3.48142 24.1941 3.93054 24.7481 3.93054Z" fill="white"/>
<path d="M28.5558 3.93054C29.1098 3.93054 29.559 3.48142 29.559 2.9274C29.559 2.37338 29.1098 1.92426 28.5558 1.92426C28.0018 1.92426 27.5527 2.37338 27.5527 2.9274C27.5527 3.48142 28.0018 3.93054 28.5558 3.93054Z" fill="white"/>
<path d="M32.3635 3.93054C32.9175 3.93054 33.3666 3.48142 33.3666 2.9274C33.3666 2.37338 32.9175 1.92426 32.3635 1.92426C31.8095 1.92426 31.3604 2.37338 31.3604 2.9274C31.3604 3.48142 31.8095 3.93054 32.3635 3.93054Z" fill="white"/>
<path d="M92.1504 86.6001H43.4763C42.3897 86.5988 41.348 86.1666 40.5797 85.3983C39.8113 84.63 39.3792 83.5883 39.3779 82.5017V23.6835C39.3788 22.8708 39.7021 22.0917 40.2767 21.5171C40.8513 20.9425 41.6304 20.6192 42.443 20.6183H93.1347C93.9603 20.6192 94.7518 20.9476 95.3356 21.5314C95.9194 22.1153 96.2478 22.9068 96.2488 23.7324V82.5017C96.2475 83.5883 95.8154 84.63 95.047 85.3983C94.2787 86.1666 93.237 86.5988 92.1504 86.6001ZM42.443 21.0867C41.7545 21.0875 41.0945 21.3613 40.6077 21.8481C40.1209 22.335 39.8471 22.995 39.8463 23.6835V82.5017C39.8474 83.4641 40.2302 84.3868 40.9107 85.0673C41.5912 85.7478 42.5139 86.1306 43.4763 86.1317H92.1504C93.1128 86.1306 94.0355 85.7478 94.716 85.0673C95.3965 84.3868 95.7793 83.4641 95.7804 82.5017V23.7324C95.7796 23.031 95.5006 22.3585 95.0046 21.8625C94.5086 21.3665 93.8361 21.0875 93.1347 21.0867H42.443Z" fill="#CCCCCC"/>
<path d="M47.2233 82.5017H88.4033C89.3971 82.5017 90.3502 82.107 91.0529 81.4043C91.7556 80.7015 92.1504 79.7485 92.1504 78.7547V28.5093C92.1504 27.5155 91.7556 26.5624 91.0529 25.8597C90.3502 25.157 89.3971 24.7622 88.4033 24.7622H47.2233C46.2295 24.7622 45.2765 25.157 44.5737 25.8597C43.871 26.5624 43.4763 27.5155 43.4763 28.5093V78.7547C43.4763 79.7485 43.871 80.7015 44.5737 81.4043C45.2765 82.107 46.2295 82.5017 47.2233 82.5017Z" fill="#E6E6E6"/>
<path d="M79.1717 35.0138H56.455C56.0513 35.0138 55.6641 34.8534 55.3787 34.5679C55.0932 34.2824 54.9328 33.8952 54.9328 33.4915C54.9328 33.0878 55.0932 32.7006 55.3787 32.4151C55.6641 32.1296 56.0513 31.9692 56.455 31.9692H79.1717C79.5754 31.9692 79.9626 32.1296 80.2481 32.4151C80.5335 32.7006 80.6939 33.0878 80.6939 33.4915C80.6939 33.8952 80.5335 34.2824 80.2481 34.5679C79.9626 34.8534 79.5754 35.0138 79.1717 35.0138Z" fill="white"/>
<path d="M79.1717 68.0348H56.455C56.0513 68.0348 55.6641 67.8744 55.3787 67.5889C55.0932 67.3035 54.9328 66.9163 54.9328 66.5125C54.9328 66.1088 55.0932 65.7216 55.3787 65.4362C55.6641 65.1507 56.0513 64.9903 56.455 64.9903H79.1717C79.5754 64.9903 79.9626 65.1507 80.2481 65.4362C80.5335 65.7216 80.6939 66.1088 80.6939 66.5125C80.6939 66.9163 80.5335 67.3035 80.2481 67.5889C79.9626 67.8744 79.5754 68.0348 79.1717 68.0348Z" fill="white"/>
<path d="M79.1717 75.2947H56.455C56.0513 75.2947 55.6641 75.1344 55.3787 74.8489C55.0932 74.5634 54.9328 74.1762 54.9328 73.7725C54.9328 73.3688 55.0932 72.9816 55.3787 72.6961C55.6641 72.4106 56.0513 72.2502 56.455 72.2502H79.1717C79.5754 72.2502 79.9626 72.4106 80.2481 72.6961C80.5335 72.9816 80.6939 73.3688 80.6939 73.7725C80.6939 74.1762 80.5335 74.5634 80.2481 74.8489C79.9626 75.1344 79.5754 75.2947 79.1717 75.2947Z" fill="white"/>
<path d="M67.9305 57.379C72.9748 57.379 77.064 53.2898 77.064 48.2456C77.064 43.2013 72.9748 39.1121 67.9305 39.1121C62.8862 39.1121 58.797 43.2013 58.797 48.2456C58.797 53.2898 62.8862 57.379 67.9305 57.379Z" fill="white"/>
<path d="M126.686 39.8763L122.696 40.7178C122.661 40.7252 122.628 40.7406 122.599 40.7628C122.571 40.785 122.548 40.8134 122.533 40.8458C122.517 40.8782 122.509 40.9137 122.51 40.9496C122.51 40.9856 122.519 41.0209 122.535 41.0529L122.907 41.7853L104.864 50.944C104.836 50.9579 104.812 50.9771 104.792 51.0004C104.772 51.0238 104.757 51.0508 104.747 51.0801C104.738 51.1093 104.734 51.1401 104.736 51.1708C104.739 51.2015 104.747 51.2313 104.761 51.2588C104.775 51.2862 104.794 51.3106 104.817 51.3306C104.841 51.3506 104.868 51.3658 104.897 51.3754C104.926 51.3849 104.957 51.3886 104.988 51.3862C105.018 51.3839 105.048 51.3755 105.076 51.3616L123.119 42.203L123.491 42.9354C123.507 42.9675 123.53 42.9953 123.559 43.0169C123.588 43.0384 123.621 43.0531 123.656 43.0597C123.692 43.0663 123.728 43.0646 123.763 43.0549C123.797 43.0452 123.829 43.0277 123.856 43.0037L126.89 40.2797C126.929 40.2453 126.955 40.1991 126.964 40.1484C126.974 40.0978 126.966 40.0454 126.943 39.9994C126.919 39.9534 126.882 39.9164 126.835 39.8942C126.789 39.8719 126.736 39.8656 126.686 39.8763Z" fill="#E6E6E6"/>
<path d="M126.686 62.6412L122.696 61.7997C122.661 61.7923 122.628 61.7769 122.599 61.7547C122.571 61.7325 122.548 61.7041 122.533 61.6717C122.517 61.6393 122.509 61.6038 122.51 61.5679C122.51 61.5319 122.519 61.4966 122.535 61.4645L122.907 60.7321L104.864 51.5735C104.836 51.5596 104.812 51.5404 104.792 51.5171C104.772 51.4937 104.757 51.4667 104.747 51.4374C104.738 51.4082 104.734 51.3774 104.736 51.3467C104.739 51.316 104.747 51.2861 104.761 51.2587C104.775 51.2313 104.794 51.2069 104.817 51.1869C104.841 51.1669 104.868 51.1517 104.897 51.1421C104.926 51.1326 104.957 51.1289 104.988 51.1312C105.018 51.1336 105.048 51.142 105.076 51.1559L123.119 60.3145L123.491 59.582C123.507 59.55 123.53 59.5222 123.559 59.5006C123.588 59.4791 123.621 59.4644 123.656 59.4578C123.692 59.4512 123.728 59.4529 123.763 59.4626C123.797 59.4722 123.829 59.4898 123.856 59.5138L126.89 62.2378C126.929 62.2722 126.955 62.3184 126.964 62.369C126.974 62.4197 126.966 62.4721 126.943 62.5181C126.919 62.5641 126.882 62.601 126.835 62.6233C126.789 62.6456 126.736 62.6519 126.686 62.6412Z" fill="#E6E6E6"/>
<path d="M139.837 45.088C138.818 45.088 137.821 44.7858 136.974 44.2197C136.127 43.6535 135.467 42.8489 135.077 41.9074C134.687 40.966 134.585 39.93 134.783 38.9306C134.982 37.9312 135.473 37.0131 136.193 36.2926C136.914 35.572 137.832 35.0813 138.831 34.8825C139.831 34.6837 140.867 34.7857 141.808 35.1757C142.75 35.5657 143.554 36.226 144.121 37.0733C144.687 37.9206 144.989 38.9167 144.989 39.9357C144.987 41.3017 144.444 42.6113 143.478 43.5772C142.512 44.5431 141.203 45.0864 139.837 45.088ZM139.837 35.2519C138.91 35.2519 138.005 35.5266 137.234 36.0413C136.464 36.5559 135.864 37.2875 135.509 38.1433C135.155 38.9992 135.062 39.9409 135.243 40.8495C135.423 41.7581 135.87 42.5927 136.525 43.2477C137.18 43.9028 138.014 44.3489 138.923 44.5296C139.831 44.7103 140.773 44.6176 141.629 44.263C142.485 43.9085 143.216 43.3082 143.731 42.5379C144.246 41.7677 144.52 40.8621 144.52 39.9357C144.519 38.6939 144.025 37.5034 143.147 36.6253C142.269 35.7472 141.078 35.2533 139.837 35.2519Z" fill="#E6E6E6"/>
<path d="M139.837 67.8046C138.818 67.8046 137.821 67.5024 136.974 66.9363C136.127 66.3701 135.467 65.5655 135.077 64.624C134.687 63.6826 134.585 62.6466 134.783 61.6472C134.982 60.6478 135.473 59.7297 136.193 59.0092C136.914 58.2886 137.832 57.7979 138.831 57.5991C139.831 57.4003 140.867 57.5024 141.808 57.8923C142.75 58.2823 143.554 58.9426 144.121 59.7899C144.687 60.6372 144.989 61.6333 144.989 62.6524C144.987 64.0183 144.444 65.3279 143.478 66.2938C142.512 67.2597 141.203 67.803 139.837 67.8046ZM139.837 57.9685C138.91 57.9685 138.005 58.2432 137.234 58.7579C136.464 59.2726 135.864 60.0041 135.509 60.8599C135.155 61.7158 135.062 62.6576 135.243 63.5661C135.423 64.4747 135.87 65.3093 136.525 65.9643C137.18 66.6194 138.014 67.0655 138.923 67.2462C139.831 67.4269 140.773 67.3342 141.629 66.9797C142.485 66.6251 143.216 66.0248 143.731 65.2546C144.246 64.4843 144.52 63.5787 144.52 62.6524C144.519 61.4106 144.025 60.22 143.147 59.3419C142.269 58.4638 141.078 57.9699 139.837 57.9685Z" fill="#E6E6E6"/>
<path d="M139.428 42.4746C139.279 42.4748 139.134 42.4267 139.015 42.3374L139.008 42.3318L137.453 41.1423C137.381 41.0871 137.32 41.0182 137.275 40.9396C137.23 40.861 137.2 40.7743 137.188 40.6843C137.176 40.5944 137.182 40.5029 137.206 40.4153C137.229 40.3276 137.27 40.2454 137.325 40.1734C137.38 40.1014 137.449 40.0409 137.528 39.9955C137.606 39.9501 137.693 39.9206 137.783 39.9087C137.873 39.8968 137.964 39.9028 138.052 39.9263C138.14 39.9497 138.222 39.9902 138.294 40.0454L139.301 40.8178L141.681 37.7126C141.736 37.6406 141.805 37.5802 141.884 37.5348C141.962 37.4894 142.049 37.46 142.139 37.4481C142.229 37.4362 142.32 37.4422 142.408 37.4656C142.496 37.489 142.578 37.5295 142.65 37.5847L142.65 37.5849L142.635 37.6054L142.65 37.5849C142.796 37.6965 142.891 37.8612 142.915 38.0428C142.938 38.2244 142.889 38.4081 142.778 38.5535L139.978 42.2043C139.914 42.2884 139.83 42.3564 139.735 42.4032C139.64 42.4499 139.535 42.4741 139.429 42.4738L139.428 42.4746Z" fill="#E6E6E6"/>
<path d="M137.601 64.8879C137.568 64.8553 137.543 64.8165 137.525 64.7739C137.507 64.7313 137.498 64.6856 137.498 64.6395C137.498 64.5933 137.507 64.5477 137.525 64.505C137.543 64.4624 137.568 64.4237 137.601 64.3911L141.575 60.4167C141.641 60.3509 141.731 60.3139 141.824 60.314C141.917 60.314 142.006 60.351 142.072 60.4169C142.138 60.4827 142.175 60.572 142.175 60.6652C142.175 60.7583 142.138 60.8476 142.072 60.9135L138.098 64.8879C138.065 64.9205 138.026 64.9464 137.984 64.964C137.941 64.9817 137.896 64.9908 137.849 64.9908C137.803 64.9908 137.758 64.9817 137.715 64.964C137.672 64.9464 137.634 64.9205 137.601 64.8879Z" fill="#E6E6E6"/>
<path d="M141.838 64.8879C141.871 64.8553 141.897 64.8165 141.914 64.7739C141.932 64.7313 141.941 64.6856 141.941 64.6395C141.941 64.5933 141.932 64.5477 141.914 64.505C141.897 64.4624 141.871 64.4237 141.838 64.3911L137.864 60.4167C137.798 60.3509 137.708 60.3139 137.615 60.314C137.522 60.314 137.433 60.351 137.367 60.4169C137.301 60.4827 137.264 60.572 137.264 60.6652C137.264 60.7583 137.301 60.8476 137.367 60.9135L141.341 64.8879C141.374 64.9205 141.413 64.9464 141.455 64.964C141.498 64.9817 141.543 64.9908 141.59 64.9908C141.636 64.9908 141.681 64.9817 141.724 64.964C141.767 64.9464 141.805 64.9205 141.838 64.8879Z" fill="#E6E6E6"/>
<path d="M148.733 51.447C148.718 51.447 148.703 51.4459 148.688 51.4437C148.647 51.4379 148.608 51.4242 148.573 51.4032C148.538 51.3823 148.507 51.3546 148.483 51.3217L146.568 48.7545C146.56 48.7436 146.549 48.7351 146.537 48.7297C146.525 48.7244 146.511 48.7224 146.497 48.724C146.484 48.7256 146.471 48.7307 146.46 48.7388C146.449 48.7469 146.441 48.7577 146.436 48.7702L145.454 51.0668C145.428 51.1266 145.385 51.1769 145.329 51.2106C145.274 51.2443 145.209 51.2598 145.144 51.2549C145.079 51.25 145.018 51.225 144.968 51.1832C144.918 51.1415 144.882 51.0853 144.866 51.0223L142.907 43.4404C142.892 43.3805 142.895 43.3174 142.915 43.2591C142.936 43.2007 142.973 43.1498 143.023 43.1129C143.072 43.0759 143.132 43.0546 143.193 43.0515C143.255 43.0485 143.316 43.0639 143.369 43.0958L150.077 47.1368C150.132 47.1703 150.176 47.2204 150.202 47.2801C150.228 47.3398 150.234 47.406 150.22 47.4696C150.207 47.5331 150.173 47.5907 150.125 47.6343C150.077 47.6779 150.016 47.7054 149.952 47.7128L147.471 47.9981C147.458 47.9996 147.445 48.0047 147.434 48.0128C147.423 48.0209 147.415 48.0317 147.409 48.0441C147.404 48.0566 147.402 48.0703 147.403 48.0837C147.405 48.0972 147.41 48.11 147.418 48.1209L149.333 50.688C149.382 50.7542 149.403 50.8373 149.391 50.919C149.379 51.0007 149.335 51.0743 149.269 51.1238L148.919 51.3852C148.865 51.4253 148.8 51.447 148.733 51.447Z" fill="#EBC94E"/>
<path d="M159.626 57.0317H151.195C150.574 57.0317 149.978 56.785 149.539 56.3458C149.1 55.9066 148.853 55.3109 148.853 54.6898C148.853 54.0687 149.1 53.473 149.539 53.0338C149.978 52.5946 150.574 52.3479 151.195 52.3479H159.626C160.247 52.3479 160.843 52.5946 161.282 53.0338C161.721 53.473 161.968 54.0687 161.968 54.6898C161.968 55.3109 161.721 55.9066 161.282 56.3458C160.843 56.785 160.247 57.0317 159.626 57.0317Z" fill="#EBC94E"/>
<path d="M57.4526 40.8465L57.102 40.5851C57.0359 40.5357 56.992 40.462 56.9801 40.3804C56.9682 40.2987 56.9892 40.2156 57.0384 40.1493L58.9529 37.5823C58.961 37.5714 58.9661 37.5586 58.9677 37.5451C58.9692 37.5316 58.9672 37.518 58.9618 37.5055C58.9565 37.493 58.9479 37.4822 58.937 37.4741C58.9261 37.4661 58.9133 37.461 58.8998 37.4594L56.4194 37.1741C56.3548 37.1667 56.2942 37.1393 56.246 37.0956C56.1978 37.052 56.1645 36.9944 56.1507 36.9309C56.1369 36.8674 56.1433 36.8012 56.1691 36.7415C56.1948 36.6818 56.2386 36.6317 56.2943 36.5981L63.0017 32.5572C63.0546 32.5253 63.1159 32.5099 63.1777 32.5129C63.2394 32.5159 63.2989 32.5373 63.3485 32.5742C63.398 32.6112 63.4355 32.6621 63.456 32.7204C63.4766 32.7787 63.4793 32.8419 63.4638 32.9017L61.505 40.4837C61.4887 40.5466 61.4532 40.6029 61.4033 40.6446C61.3535 40.6863 61.2918 40.7114 61.227 40.7163C61.1622 40.7212 61.0975 40.7057 61.0419 40.6719C60.9864 40.6382 60.9428 40.5879 60.9172 40.5282L59.9356 38.2315C59.9302 38.2191 59.9217 38.2082 59.9108 38.2001C59.8999 38.192 59.8871 38.1869 59.8737 38.1853C59.8602 38.1837 59.8466 38.1857 59.8341 38.1911C59.8217 38.1964 59.8108 38.205 59.8027 38.2159L57.8883 40.7831C57.8639 40.8159 57.8333 40.8436 57.7981 40.8646C57.763 40.8855 57.7241 40.8993 57.6836 40.9051C57.6685 40.9073 57.6533 40.9084 57.6381 40.9084C57.5712 40.9084 57.5061 40.8867 57.4526 40.8465Z" fill="#F1675F"/>
<path d="M44.4034 44.1512C44.4041 43.5303 44.651 42.935 45.0901 42.496C45.5291 42.0569 46.1244 41.81 46.7453 41.8093H55.1762C55.7973 41.8093 56.393 42.056 56.8322 42.4952C57.2714 42.9344 57.5181 43.5301 57.5181 44.1512C57.5181 44.7723 57.2714 45.368 56.8322 45.8072C56.393 46.2464 55.7973 46.4931 55.1762 46.4931H46.7453C46.1244 46.4924 45.5291 46.2454 45.0901 45.8064C44.651 45.3674 44.4041 44.7721 44.4034 44.1512Z" fill="#F1675F"/>
<path d="M169.403 86.6034C169.657 86.3707 169.857 86.0852 169.988 85.767C170.12 85.4488 170.18 85.1057 170.164 84.7618C170.149 84.4178 170.058 84.0815 169.899 83.7764C169.739 83.4713 169.515 83.2049 169.241 82.9959L171.859 75.0472L167.662 76.1853L165.819 83.5591C165.498 84.042 165.366 84.6258 165.447 85.1997C165.528 85.7736 165.817 86.2979 166.259 86.6732C166.701 87.0484 167.265 87.2486 167.844 87.2357C168.424 87.2228 168.978 86.9978 169.403 86.6034Z" fill="#C57457"/>
<path d="M194.579 86.1349C194.326 85.9022 194.126 85.6168 193.994 85.2986C193.863 84.9804 193.803 84.6372 193.818 84.2933C193.834 83.9494 193.924 83.613 194.084 83.3079C194.243 83.0028 194.468 82.7364 194.741 82.5275L192.123 74.5787L196.321 75.7169L198.163 83.0906C198.484 83.5736 198.616 84.1573 198.535 84.7313C198.454 85.3052 198.165 85.8295 197.723 86.2047C197.282 86.5799 196.718 86.7801 196.138 86.7672C195.559 86.7544 195.004 86.5294 194.579 86.1349Z" fill="#C57457"/>
<path d="M182.277 46.4284C185.454 46.4284 188.029 43.8532 188.029 40.6764C188.029 37.4997 185.454 34.9244 182.277 34.9244C179.1 34.9244 176.525 37.4997 176.525 40.6764C176.525 43.8532 179.1 46.4284 182.277 46.4284Z" fill="#D48A72"/>
<path d="M176.847 123.035H173.976L172.61 111.96H176.848L176.847 123.035Z" fill="#C57457"/>
<path d="M177.58 125.818L168.322 125.818V125.701C168.322 125.227 168.415 124.759 168.596 124.322C168.777 123.884 169.043 123.487 169.377 123.153C169.712 122.818 170.109 122.553 170.546 122.372C170.983 122.19 171.452 122.097 171.925 122.097H171.925L177.58 122.098L177.58 125.818Z" fill="#2F2E41"/>
<path d="M186.683 123.035H183.812L182.446 111.96H186.684L186.683 123.035Z" fill="#C57457"/>
<path d="M187.416 125.818L178.158 125.818V125.701C178.158 125.227 178.251 124.759 178.432 124.322C178.613 123.884 178.879 123.487 179.213 123.153C179.548 122.818 179.945 122.553 180.382 122.372C180.82 122.19 181.288 122.097 181.761 122.097H181.762L187.416 122.098L187.416 125.818Z" fill="#2F2E41"/>
<path d="M176.8 119.798L173.428 119.788C173.283 119.807 173.137 119.795 172.997 119.753C172.857 119.711 172.728 119.64 172.618 119.545C172.505 119.449 172.414 119.33 172.35 119.196C172.286 119.062 172.252 118.916 172.248 118.767L172.637 81.4428L188.2 81.2872L187.297 118.492C187.292 118.768 187.179 119.03 186.982 119.223C186.785 119.415 186.519 119.522 186.244 119.521H182.766C182.493 119.521 182.231 119.416 182.034 119.227C181.838 119.037 181.722 118.779 181.713 118.506L180.871 96.1763C180.872 96.1612 180.869 96.1462 180.863 96.1323C180.857 96.1183 180.849 96.1057 180.838 96.0952C180.827 96.0846 180.814 96.0764 180.8 96.0709C180.786 96.0655 180.771 96.063 180.756 96.0635C180.726 96.0626 180.697 96.0736 180.674 96.094C180.652 96.1144 180.639 96.1427 180.638 96.1728L177.709 118.832C177.691 119.072 177.591 119.3 177.425 119.475C177.26 119.651 177.04 119.765 176.8 119.798Z" fill="#038966"/>
<path d="M179.704 83.9856C177.405 83.9856 174.974 83.5748 172.781 82.3737C172.617 82.284 172.479 82.1526 172.382 81.9928C172.285 81.833 172.232 81.6504 172.228 81.4634L171.921 64.4287L171.489 60.7836C171.23 58.6154 171.617 56.419 172.6 54.4691C173.583 52.5193 175.119 50.9026 177.016 49.8212L177.215 49.7075L177.777 48.3968C177.823 48.2885 177.9 48.1966 177.999 48.1333C178.098 48.07 178.214 48.0383 178.332 48.0423L185.883 48.258C186.003 48.2618 186.118 48.3021 186.215 48.3737C186.311 48.4452 186.383 48.5445 186.421 48.6582L186.772 49.7105C188.71 50.823 190.265 52.4967 191.233 54.511C192.2 56.5253 192.534 58.7855 192.191 60.9936L189.096 81.4781C189.068 81.6624 188.992 81.8361 188.875 81.9813C188.758 82.1266 188.605 82.2382 188.431 82.3048C187.061 82.8251 183.568 83.9856 179.704 83.9856Z" fill="#E2BC44"/>
<path d="M194.46 81.6756C194.342 81.6755 194.226 81.6397 194.129 81.5729C194.031 81.5061 193.956 81.4114 193.913 81.3013L190.079 71.3776L186.943 55.917C186.825 55.3337 186.88 54.7285 187.101 54.1761C187.323 53.6236 187.701 53.1482 188.19 52.8085C188.612 52.5148 189.102 52.3326 189.613 52.279C190.125 52.2254 190.642 52.302 191.116 52.5018C191.59 52.7015 192.005 53.0179 192.324 53.4215C192.643 53.8251 192.854 54.3028 192.939 54.8101L193.816 60.0749L198.168 80.2289C198.2 80.3787 198.171 80.535 198.09 80.6645C198.008 80.794 197.879 80.8864 197.73 80.9221L194.593 81.6601C194.55 81.6704 194.505 81.6757 194.46 81.6756Z" fill="#E2BC44"/>
<path d="M169.757 81.6756C169.712 81.6757 169.667 81.6704 169.623 81.6601L166.487 80.9221C166.338 80.8864 166.209 80.7939 166.127 80.6645C166.045 80.535 166.017 80.3787 166.049 80.2289L170.401 60.0694L171.278 54.8101C171.362 54.3028 171.574 53.8251 171.893 53.4215C172.211 53.0179 172.627 52.7015 173.101 52.5018C173.575 52.302 174.092 52.2254 174.603 52.279C175.115 52.3326 175.604 52.5148 176.026 52.8085C176.515 53.1482 176.894 53.6236 177.115 54.1761C177.337 54.7285 177.392 55.3337 177.273 55.917L174.143 71.3586L170.304 81.3015C170.261 81.4116 170.185 81.5062 170.088 81.573C169.99 81.6397 169.875 81.6755 169.757 81.6756Z" fill="#E2BC44"/>
<path d="M186.754 46.1637C186.222 46.4701 184.117 46.6733 183.967 46.0774L183.963 46.0643C183.859 45.6278 183.946 45.1719 183.976 44.724C184.006 44.2762 183.962 43.7842 183.657 43.4549C183.088 42.841 182.076 43.1664 181.254 43.0112C180.773 42.9037 180.347 42.6244 180.056 42.2255C179.766 41.8267 179.63 41.3356 179.676 40.8442C179.687 40.7512 179.706 40.658 179.726 40.5648C179.778 40.3288 179.774 40.0841 179.715 39.85C179.656 39.6158 179.543 39.3984 179.386 39.2151C179.229 39.0317 179.031 38.8872 178.809 38.7931C178.587 38.6989 178.345 38.6575 178.104 38.6722C177.273 38.7198 176.376 38.9715 175.689 38.3561C175.157 37.8801 175.028 36.6412 175.261 35.967C175.654 34.8339 178.168 34.2407 179.266 33.9146C180.624 33.5223 182.052 33.4374 183.447 33.6663C184.842 33.8952 186.168 34.432 187.33 35.2377C188.023 35.7265 188.671 36.3407 188.966 37.136C189.262 37.9313 189.119 38.9347 188.453 39.4597C188.969 40.0067 189.333 40.6798 189.508 41.4117C189.682 42.1436 189.661 42.9085 189.447 43.6298C189.118 44.6905 187.547 45.7075 186.754 46.1637Z" fill="#023744"/>
<path d="M26.5969 78.0116C26.2544 77.9771 25.9235 77.868 25.6277 77.6918C25.3319 77.5157 25.0783 77.2768 24.8848 76.9921C24.6913 76.7073 24.5626 76.3836 24.5077 76.0437C24.4528 75.7038 24.4731 75.3561 24.5672 75.0249L17.7114 70.2254L21.7548 68.6243L27.6453 73.4274C28.1912 73.6223 28.6466 74.0107 28.9253 74.519C29.2039 75.0273 29.2865 75.6201 29.1572 76.1852C29.028 76.7502 28.696 77.2482 28.2241 77.5848C27.7522 77.9215 27.1733 78.0733 26.5969 78.0116Z" fill="#FFB8B8"/>
<path d="M22.8739 74.3633L16.6653 70.7623C16.0415 70.4097 15.4979 69.9312 15.069 69.3572C14.6401 68.7832 14.3354 68.1262 14.1741 67.4281C14.0285 66.7675 14.0198 66.0841 14.1485 65.4201C14.2773 64.756 14.5407 64.1254 14.9227 63.5671L20.0623 55.986C20.4259 55.4497 20.9787 55.0705 21.6099 54.9245C22.2412 54.7785 22.9044 54.8765 23.4665 55.1987C24.0286 55.521 24.4482 56.0438 24.6412 56.6624C24.8341 57.2809 24.7862 57.9495 24.507 58.5342L20.4937 66.943L24.5593 70.5229C24.6999 70.6469 24.805 70.806 24.8636 70.9841C24.9223 71.1621 24.9325 71.3525 24.8931 71.5358L24.4329 73.6733C24.3987 73.8361 24.3261 73.9885 24.2211 74.1175C24.116 74.2466 23.9816 74.3487 23.8291 74.4152C23.6773 74.4833 23.5114 74.5142 23.3452 74.5051C23.179 74.4961 23.0175 74.4475 22.8739 74.3633L22.8739 74.3633Z" fill="#E85652"/>
<path d="M51.0058 57.5175C50.9016 57.8456 50.7268 58.1469 50.4936 58.4002C50.2604 58.6534 49.9745 58.8525 49.656 58.9833C49.3375 59.1141 48.9943 59.1735 48.6504 59.1573C48.3065 59.1411 47.9703 59.0497 47.6655 58.8895L41.5587 64.6117L40.8234 60.3254L46.7353 55.5487C47.0383 55.0546 47.5121 54.6888 48.0668 54.5206C48.6215 54.3524 49.2186 54.3936 49.745 54.6363C50.2714 54.8789 50.6905 55.3063 50.9229 55.8373C51.1552 56.3683 51.1847 56.9661 51.0058 57.5175Z" fill="#E8CDA6"/>
<path d="M25.9933 50.0059C29.1701 50.0059 31.7453 47.4306 31.7453 44.2539C31.7453 41.0771 29.1701 38.5019 25.9933 38.5019C22.8166 38.5019 20.2413 41.0771 20.2413 44.2539C20.2413 47.4306 22.8166 50.0059 25.9933 50.0059Z" fill="#F2D9AF"/>
<path d="M42.9292 122.942L45.6812 122.123L43.8325 111.119L39.7709 112.327L42.9292 122.942Z" fill="#E8CDA6"/>
<path d="M41.9601 122.252L47.3796 120.639L47.3798 120.639C47.8333 120.504 48.309 120.46 48.7797 120.509C49.2504 120.558 49.7068 120.699 50.1229 120.924C50.5391 121.15 50.9067 121.455 51.205 121.822C51.5032 122.19 51.7261 122.612 51.8611 123.066L51.8945 123.178L43.0211 125.818L41.9601 122.252Z" fill="#023744"/>
<path d="M12.7798 122.801H15.6508L17.0169 111.726H14.1845L12.7798 122.801Z" fill="#E8CDA6"/>
<path d="M12.0474 121.863L17.7016 121.863H17.7019C18.1751 121.863 18.6437 121.956 19.0808 122.137C19.518 122.318 19.9153 122.584 20.2499 122.918C20.5845 123.253 20.8499 123.65 21.031 124.087C21.2121 124.525 21.3053 124.993 21.3053 125.466V125.583L12.0475 125.584L12.0474 121.863Z" fill="#023744"/>
<path d="M40.8752 118.978L30.1056 87.988C30.083 87.9199 30.0396 87.8605 29.9815 87.8182C29.9235 87.7759 29.8537 87.7529 29.7819 87.7522C29.7099 87.7482 29.6384 87.7675 29.5783 87.8073C29.5181 87.847 29.4723 87.9051 29.4477 87.9729L17.0381 118.996C16.9572 119.2 16.8144 119.374 16.6297 119.492C16.445 119.611 16.2277 119.668 16.0085 119.657L12.7695 119.5C12.6135 119.492 12.4611 119.45 12.3235 119.377C12.1858 119.303 12.0662 119.2 11.9733 119.074C11.8804 118.948 11.8166 118.804 11.7865 118.651C11.7564 118.497 11.7607 118.339 11.7991 118.188L23.5375 71.9248L35.3144 70.9638L35.3913 71.0747C35.4549 71.1667 41.7561 80.4431 41.7523 96.4587L45.79 118.441C45.8179 118.593 45.812 118.75 45.7728 118.899C45.7336 119.049 45.6621 119.188 45.5632 119.306C45.4643 119.425 45.3405 119.521 45.2005 119.586C45.0606 119.652 44.908 119.686 44.7535 119.686H41.8707C41.6518 119.686 41.4384 119.618 41.26 119.491C41.0817 119.364 40.9472 119.185 40.8752 118.978Z" fill="#035670"/>
<path d="M19.3398 61.4314C18.9254 60.245 18.8231 58.9721 19.0428 57.7348C19.2624 56.4975 19.7965 55.3374 20.5938 54.3661C21.3725 53.4003 22.3865 52.6509 23.5383 52.19C24.6902 51.729 25.9412 51.5719 27.1713 51.7337C27.2689 51.7468 27.3658 51.7599 27.4622 51.7733C29.028 51.9847 30.4834 52.6967 31.6112 53.8032C32.7391 54.9097 33.4789 56.3512 33.7202 57.9126L35.9196 71.9008L23.3808 72.8471L23.2909 72.8538L19.3398 61.4314Z" fill="#E85652"/>
<path d="M37.637 67.1074C36.9509 67.0839 36.2771 66.918 35.6586 66.6201C35.04 66.3222 34.4902 65.8989 34.044 65.3771L28.1127 58.5013C27.6526 57.9858 27.4118 57.3111 27.4418 56.6207C27.4603 56.2598 27.5554 55.907 27.721 55.5858C27.8865 55.2646 28.1186 54.9824 28.4018 54.7579C28.8692 54.3847 29.4521 54.1861 30.0501 54.1962C30.6481 54.2063 31.2239 54.4245 31.6784 54.8133L38.7519 60.8755L43.1037 57.8482C43.2598 57.7394 43.4425 57.6751 43.6323 57.6619C43.822 57.6486 44.0119 57.6871 44.1815 57.7731L46.2643 58.8275C46.4132 58.9029 46.542 59.0125 46.6402 59.1474C46.7384 59.2823 46.8032 59.4386 46.8292 59.6034C46.8552 59.7682 46.8418 59.9368 46.7899 60.0954C46.738 60.254 46.6493 60.398 46.5309 60.5155L41.3522 65.6589C40.8906 66.1204 40.3425 66.4862 39.7392 66.7355C39.1359 66.9847 38.4894 67.1123 37.8367 67.1111C37.7704 67.1111 37.7038 67.1099 37.637 67.1074Z" fill="#E85652"/>
<path d="M30.3673 42.8173C31.0835 43.0952 31.8382 43.2612 32.6049 43.3097C33.376 43.3194 34.1957 43.0522 34.6177 42.4649C34.7796 42.2084 34.8841 41.9199 34.9241 41.6192C34.9641 41.3185 34.9385 41.0127 34.8493 40.7227C34.6895 40.135 34.402 39.5897 34.0072 39.1259C33.6124 38.6621 33.1201 38.2912 32.5654 38.0396C31.9825 37.7752 31.3532 37.6285 30.7135 37.6079C30.0738 37.5873 29.4363 37.6932 28.8376 37.9196C28.4048 36.604 26.7748 35.888 25.2661 35.8475C22.1842 35.7647 19.4286 37.8662 18.0895 40.393C16.7505 42.9199 16.5549 45.8083 16.4717 48.6125C16.4513 49.2964 16.4428 50.0095 16.7668 50.6269C17.2492 51.5462 18.3454 52.0413 19.3786 52.434C22.0881 53.4619 24.8833 54.2477 27.7316 54.782C26.364 53.9078 25.9302 52.0264 26.7964 50.7259C27.2203 50.0897 27.9162 49.56 28.0288 48.8231C28.1638 47.9395 27.4099 47.1668 27.131 46.3115C26.9901 45.8485 26.9837 45.355 27.1127 44.8885C27.2416 44.422 27.5005 44.0018 27.8592 43.6769C28.2496 43.3377 28.7164 43.0982 29.2196 42.9789C29.7228 42.8596 30.2474 42.864 30.7486 42.9917" fill="#023744"/>
</g>
<defs>
<clipPath id="clip0">
<rect width="200" height="125.884" fill="white"/>
</clipPath>
</defs>
</svg>
